<svg height="512pt" viewBox="0 -73 512.00013 512" width="512pt" xmlns="http://www.w3.org/2000/svg"><path d="m1.945312 349.738281 245.5625-345.359375c4.152344-5.839844 12.828126-5.839844 16.980469 0l245.566407 345.359375c4.90625 6.898438-.027344 16.457031-8.492188 16.457031h-491.125c-8.464844 0-13.394531-9.558593-8.492188-16.457031zm0 0" fill="#f9c153"/><path d="m510.054688 349.738281-226.308594-318.277343-19.253906-27.082032c-2.535157-3.5625-6.75-4.9375-10.59375-4.152344l-98.824219 365.96875h346.488281c8.464844 0 13.398438-9.558593 8.492188-16.457031zm0 0" fill="#ffd576"/><path d="m449.855469 300.453125h25.15625l-10.664063-15h-55.867187l-16.382813-58.238281h30.835938l-10.664063-15h-29.855469c-.011718 0-.027343 0-.039062 0h-31.582031l-16.386719-58.238282h36.453125l-10.667969-15h-35.472656c-.007812 0-.015625 0-.023438 0h-31.59375l-16.382812-58.238281h42.0625l-10.664062-15h-41.089844c-.003906 0-.011719 0-.019532 0h-63.128906l-10.664062 15h67.917968l16.382813 58.238281h-125.710937l-10.664063 15h146.253906c.007813 0 .015625.003907.023438.003907.007812 0 .019531-.003907.027343-.003907h31.378907l16.386719 58.238282h-68.175782c-.011718 0-.027344 0-.039062 0h-115.527344c-.023438 0-.046875 0-.070312 0h-51.667969l-10.667969 15h51.070312l-24.578124 58.238281h-21.691407c-.027343 0-.050781 0-.078125 0h-46.132812l-10.664063 15h45.304688l-28.660157 65.742187h16.363282l28.660156-65.742187h21.832031c.011719 0 .027344.003906.039063.003906.007812 0 .019531-.003906.027344-.003906h82.882812l18.371094 65.742187h15.574218l-18.371093-65.742187h68.382812c.007813 0 .015625.003906.023438.003906.007812 0 .019531-.003906.027343-.003906h31.410157l18.847656 65.742187h15.605469l-18.847656-65.742187h68.3125c.007812 0 .015624.003906.023437.003906.011719 0 .019531-.003906.027344-.003906h31.417969l18.941406 65.742187h15.609375zm-318.019531-15 24.578124-58.238281h104.722657l16.382812 58.238281zm161.265624 0-16.382812-58.238281h68.363281c.007813 0 .015625.003906.023438.003906.011719 0 .019531-.003906.03125-.003906h31.378906l16.382813 58.238281zm0 0" fill="#ed9740"/></svg>